<svg data-v-fde0c5aa="" xmlns="http://www.w3.org/2000/svg" viewBox="0 0 300 300" class="icon"><!----><defs data-v-fde0c5aa=""><linearGradient data-v-fde0c5aa="" gradientTransform="rotate(25)" id="e0986f53-ca2d-4bbe-9007-6ced352c32ea" x1="0%" y1="0%" x2="100%" y2="0%"><stop data-v-fde0c5aa="" offset="0%" stop-color="#F00079" stop-opacity="1"></stop><stop data-v-fde0c5aa="" offset="100%" stop-color="#F2A041" stop-opacity="1"></stop></linearGradient></defs><rect data-v-fde0c5aa="" fill="url(#e0986f53-ca2d-4bbe-9007-6ced352c32ea)" x="0" y="0" width="300px" height="300px" class="logo-background-square"></rect><!----><defs data-v-fde0c5aa=""><!----></defs><g data-v-fde0c5aa="" id="5daa6311-34e0-43be-a937-a0853828cb50" fill="#ffffff" stroke="none" transform="matrix(2.2,0,0,2.2,39.999999999999986,39.999999999999986)"><path d="M49.998 100C22.429 100 0 77.57 0 49.998 0 22.429 22.429 0 49.998 0 77.57 0 100 22.429 100 49.998 100 77.57 77.57 100 49.998 100zm0-90.909c-22.556 0-40.907 18.351-40.907 40.907 0 22.558 18.351 40.912 40.907 40.912 22.558 0 40.912-18.354 40.912-40.912 0-22.556-18.354-40.907-40.912-40.907z"></path><path d="M29.119 78.442l3.988-23.246-16.891-16.467 23.343-3.393 10.438-21.154 10.44 21.154 23.348 3.393L66.89 55.196l3.993 23.246-20.885-10.976-20.879 10.976zM49.998 60.62l12.833 6.744-2.454-14.284L70.76 42.961l-14.348-2.084-6.415-12.999-6.414 12.998-14.346 2.085 10.38 10.119-2.451 14.284 12.832-6.744z"></path></g><!----></svg>